<svg width="87" height="90" viewBox="0 0 295 305" fill="none" xmlns="http://www.w3.org/2000/svg">
<path d="M252.177 18.323H99.9193V13.7422C99.9193 6.16601 93.5144 0 85.6448 0H66.6131C58.7435 0 52.3387 6.16601 52.3387 13.7422V18.323H42.8223C34.9527 18.323 28.5479 24.489 28.5479 32.0652V187.807C28.5479 195.384 34.9527 201.55 42.8223 201.55H61.855V192.387H42.8223C40.2004 192.387 38.0642 190.331 38.0642 187.806V155.742H256.936V187.806C256.936 190.331 254.799 192.387 252.177 192.387H233.145V201.549H252.177C260.047 201.549 266.452 195.383 266.452 187.806V32.0642C266.452 24.488 260.047 18.323 252.177 18.323ZM61.855 13.7422C61.855 11.2181 63.9913 9.16148 66.6131 9.16148H85.6458C88.2677 9.16148 90.4039 11.2181 90.4039 13.7422V18.323H61.855V13.7422ZM38.0642 146.581V32.0642C38.0642 29.5401 40.2004 27.4835 42.8223 27.4835H252.177C254.799 27.4835 256.936 29.5401 256.936 32.0642V146.581H38.0642Z" fill="#131F3B"/>
<path d="M147.5 36.645C118.642 36.645 95.1611 59.2505 95.1611 87.0322C95.1611 114.814 118.642 137.419 147.5 137.419C176.358 137.419 199.839 114.814 199.839 87.0322C199.839 59.2505 176.358 36.645 147.5 36.645ZM147.5 128.258C123.89 128.258 104.677 109.761 104.677 87.0322C104.677 64.3036 123.891 45.8065 147.5 45.8065C171.109 45.8065 190.322 64.3036 190.322 87.0322C190.322 109.761 171.11 128.258 147.5 128.258Z" fill="#ECA83E"/>
<path d="M80.8867 123.677H47.5806V132.838H80.8867V123.677Z" fill="#131F3B"/>
<path d="M99.9192 123.677H90.4028V132.838H99.9192V123.677Z" fill="#131F3B"/>
<path d="M147.5 54.9678C129.134 54.9678 114.194 69.3506 114.194 87.032C114.194 104.713 129.134 119.096 147.5 119.096C165.866 119.096 180.806 104.713 180.806 87.032C180.806 69.3506 165.866 54.9678 147.5 54.9678ZM147.5 109.936C134.382 109.936 123.709 99.6612 123.709 87.032C123.709 74.4027 134.382 64.1283 147.5 64.1283C160.618 64.1283 171.291 74.4027 171.291 87.032C171.291 99.6612 160.618 109.936 147.5 109.936Z" fill="#ECA83E"/>
<ellipse cx="237.808" cy="42.3251" rx="5.99516" ry="5.77161" fill="#131F3B"/>
<path d="M235 196.479V295.961C235 300.954 230.019 305 223.878 305H100.122C93.9786 305 89 300.952 89 295.961V273.633V161.039C89 156.048 93.9786 152 100.122 152H180.271C197.569 152.23 235 179.219 235 196.479Z" fill="#E2E2E2"/>
<path d="M88.8322 186.619H173.417C180.177 186.619 185.657 190.73 185.657 195.8V224.698C185.657 229.768 180.177 233.879 173.417 233.879H72.9516C66.1919 233.879 60.7114 229.768 60.7114 224.698V177.438" fill="#F15642"/>
<path d="M60.7114 177.438C60.7114 182.508 66.1919 186.619 72.9516 186.619H88.8322V168.804H72.9516C66.1919 168.804 60.7114 172.914 60.7114 177.985" fill="#BE4030"/>
<path d="M180.33 152.178H194.324C200.261 152.178 205.953 153.947 210.15 157.095L228.734 171.035C232.931 174.183 235.29 178.452 235.29 182.905V193.402C235.29 188.015 229.467 183.649 222.287 183.649H205.764C198.899 183.649 193.335 179.475 193.335 174.326V161.932C193.333 156.546 187.512 152.178 180.33 152.178Z" fill="#B7B7B7"/>
<path d="M96.9721 195.79H85.4419C83.7005 195.79 82.291 196.848 82.291 198.154V212.492V222.309C82.291 223.615 83.7005 224.672 85.4419 224.672C87.1833 224.672 88.5928 223.615 88.5928 222.309V214.855H96.9721C101.745 214.855 105.631 211.942 105.631 208.362V202.283C105.629 198.704 101.745 195.79 96.9721 195.79ZM99.3269 208.362C99.3269 209.336 98.2703 210.128 96.97 210.128H88.5907V200.517H96.97C98.2703 200.517 99.3269 201.31 99.3269 202.283V208.362Z" fill="white"/>
<path d="M126.057 195.79H115.092C113.35 195.79 111.941 196.848 111.941 198.154V222.311C111.941 223.617 113.35 224.674 115.092 224.674H126.057C131.143 224.674 135.281 221.57 135.281 217.756V202.709C135.281 198.894 131.145 195.79 126.057 195.79ZM128.979 217.756C128.979 218.964 127.668 219.947 126.057 219.947H118.243V200.517H126.057C127.668 200.517 128.979 201.5 128.979 202.709V217.756Z" fill="white"/>
<path d="M162.369 195.79H145.334C143.592 195.79 142.183 196.848 142.183 198.154V222.311C142.183 223.617 143.592 224.674 145.334 224.674C147.075 224.674 148.484 223.617 148.484 222.311V212.596H156.492C158.231 212.596 159.643 211.538 159.643 210.232C159.643 208.926 158.231 207.869 156.492 207.869H148.482V200.517H162.367C164.107 200.517 165.518 199.46 165.518 198.154C165.518 196.848 164.109 195.79 162.369 195.79Z" fill="white"/>
<path d="M138.186 269.967C136.953 270.89 134.959 270.89 133.728 269.967L122.704 261.698V286.343C122.704 287.648 121.295 288.707 119.553 288.707C117.812 288.707 116.403 287.648 116.403 286.343V261.698L105.379 269.967C104.148 270.89 102.154 270.89 100.923 269.967C99.6923 269.043 99.6923 267.548 100.923 266.625L114.205 256.662C115.518 255.678 117.197 255.158 118.917 255.049C119.123 255.017 119.337 255 119.556 255C119.774 255 119.988 255.017 120.194 255.049C121.912 255.158 123.593 255.678 124.906 256.662L138.188 266.625C139.415 267.548 139.415 269.043 138.186 269.967Z" fill="#57A9DB"/>
</svg>
